<svg width="293" height="32" viewBox="0 0 293 32" fill="none" xmlns="http://www.w3.org/2000/svg">
<path d="M9.04 25.64C9.04 25.48 9.04 25.24 9.04 24.92C9.04 23 7.92 22.28 7.92 19.96C7.92 19.48 8 18.96 8.16 18.4H16.84L20.32 29.4C20.72 30.36 21.64 31 22.68 31H29.64V30.72C29.64 30.56 29.28 30.44 29.2 30.36C29.2 30.36 28.2 29.76 28.08 29.4L20.12 4.12C19.4 1.68 19.24 1.6 18 1.6C17.96 1.6 17.84 1.6 17.76 1.6H11.48C9.36 7.8 2.92 24.72 0.48 31H6.36C7.76 31 9 29.6 9 28.2L9.04 25.64ZM13.24 17.08H8.52C9.32 14.52 11 9.56 12.52 4.84L15.84 15.4C15.84 16.36 15.16 17.12 13.4 17.12C13.36 17.12 13.32 17.12 13.24 17.08ZM56.2553 21.4C56.2553 18.96 55.0153 18.4 53.4553 18.4H49.3753V23.04C49.3753 28.16 47.6153 30.28 44.5753 30.28C41.8153 30.28 38.6553 28.52 38.6553 24.96V16.52V8.08C38.6553 4.52 41.8553 2.52 44.6153 2.44C47.8153 2.32 50.1753 3.32 50.9753 4.88C51.1753 5.24 51.2153 5.52 51.2153 5.8C51.1353 6.6 50.5753 7.12 50.2953 7.4C49.1353 8.6 48.4153 11.16 50.0153 12.8C51.2553 14.04 53.6553 14.6 55.1753 13.24C56.4953 12.04 56.2953 10.16 56.2553 9.96C56.2553 9.96 56.6153 1.12 44.2953 1.12C36.4553 1.12 30.6153 7.8 30.6153 16.36C30.6153 24.92 36.4553 31.6 44.2953 31.6C56.6153 31.6 56.2553 22.76 56.2553 22.76V21.4ZM85.6131 21.4C85.6131 18.96 84.3731 18.4 82.8131 18.4H78.7331V23.04C78.7331 28.16 76.9731 30.28 73.9331 30.28C71.1731 30.28 68.0131 28.52 68.0131 24.96V16.52V8.08C68.0131 4.52 71.2131 2.52 73.9731 2.44C77.1731 2.32 79.5331 3.32 80.3331 4.88C80.5331 5.24 80.5731 5.52 80.5731 5.8C80.4931 6.6 79.9331 7.12 79.6531 7.4C78.4931 8.6 77.7731 11.16 79.3731 12.8C80.6131 14.04 83.0131 14.6 84.5331 13.24C85.8531 12.04 85.6531 10.16 85.6131 9.96C85.6131 9.96 85.9731 1.12 73.6531 1.12C65.8131 1.12 59.9731 7.8 59.9731 16.36C59.9731 24.92 65.8131 31.6 73.6531 31.6C85.9731 31.6 85.6131 22.76 85.6131 22.76V21.4ZM107.211 13.24H111.011V5.16C111.011 3.24 109.491 1.68 107.611 1.68H90.4909V28.48C90.4909 29.88 91.6109 31.04 93.0109 31.04H95.5309C95.6109 31.04 95.6909 31.04 95.7709 31.04H107.611C109.491 31.04 111.011 29.48 111.011 27.52V21.36H106.811C104.931 21.36 103.811 22.56 103.811 23.92V24.48C103.811 24.68 103.811 24.64 103.811 24.84C103.811 26.36 105.091 26.72 105.091 27.84C105.091 28.92 103.651 29.76 101.011 29.72C97.8909 29.64 97.9709 28.16 97.9709 21.8V17.52C97.9709 17.32 98.0909 16.32 99.0909 16.32L103.411 16.36C103.731 16.36 103.851 16.12 103.851 15.92V15H97.9709V7.96C98.0509 4.04 98.5309 3 101.691 3C104.331 3 105.171 3.8 105.171 5.2C105.171 7.72 103.811 6.88 103.811 9C103.811 9.24 103.811 9.28 103.811 9.48V10.08C103.811 12 105.331 13.24 107.211 13.24ZM128.657 15.16H127.417C126.497 15.16 123.177 15.4 123.177 13.36V6.64C123.177 4 124.897 2.56 127.377 2.44C129.857 2.32 132.537 3.28 133.257 4.96C133.697 6.04 133.377 6.44 132.457 7.52C130.697 9.64 131.217 12.96 133.737 14C136.217 15.08 139.177 13.92 139.177 10.04C139.177 6.16 136.977 1.12 127.657 1.12C126.337 1.12 121.217 0.719999 117.737 4.2C117.377 4.52 117.097 4.92 116.817 5.32C115.737 6.84 115.577 7.72 115.577 11C115.577 16.72 124.377 16.72 125.857 16.64C126.017 16.64 126.137 16.64 126.297 16.64H127.297C128.137 16.64 131.577 16.52 131.577 18.56V26.44C131.577 29.4 130.257 30.24 127.537 30.24C124.657 30.24 123.177 28.2 123.177 24.96V18.64H118.177C116.737 18.64 115.537 19.16 115.577 21.2V24.68C115.577 24.68 115.297 31.48 127.017 31.48C139.937 31.48 139.177 25.36 139.177 20.84C139.177 14.68 128.657 15.16 128.657 15.16ZM156.648 15.16H155.408C154.488 15.16 151.168 15.4 151.168 13.36V6.64C151.168 4 152.888 2.56 155.368 2.44C157.848 2.32 160.528 3.28 161.248 4.96C161.688 6.04 161.368 6.44 160.448 7.52C158.688 9.64 159.208 12.96 161.728 14C164.208 15.08 167.168 13.92 167.168 10.04C167.168 6.16 164.968 1.12 155.648 1.12C154.328 1.12 149.208 0.719999 145.728 4.2C145.368 4.52 145.088 4.92 144.808 5.32C143.728 6.84 143.568 7.72 143.568 11C143.568 16.72 152.368 16.72 153.848 16.64C154.008 16.64 154.128 16.64 154.288 16.64H155.288C156.128 16.64 159.568 16.52 159.568 18.56V26.44C159.568 29.4 158.248 30.24 155.528 30.24C152.648 30.24 151.168 28.2 151.168 24.96V18.64H146.168C144.728 18.64 143.528 19.16 143.568 21.2V24.68C143.568 24.68 143.288 31.48 155.008 31.48C167.928 31.48 167.168 25.36 167.168 20.84C167.168 14.68 156.648 15.16 156.648 15.16ZM188.798 1.6C187.398 1.28 185.758 1.12 183.838 1.12C181.918 1.12 180.278 1.28 178.838 1.6C173.758 2.72 171.598 7.36 171.598 12.56V20.12C171.598 25.32 173.758 29.92 178.838 31.04C180.278 31.36 181.918 31.56 183.838 31.56C185.758 31.56 187.398 31.36 188.798 31.04C193.878 29.92 196.078 25.32 196.078 20.12V12.56C196.078 7.36 193.878 2.72 188.798 1.6ZM188.598 25.24C188.598 28.12 186.438 30.36 183.838 30.36C181.198 30.36 179.078 28.12 179.078 25.24V7.6C179.078 4.76 181.198 2.44 183.838 2.44C186.438 2.44 188.598 4.76 188.598 7.6V25.24ZM225.216 30.4C224.456 30.2 224.056 29.68 223.776 29.32L223.576 28.96L216.496 18.04H218.416C219.976 18.04 222.216 18.12 222.216 15.56V8.36C222.216 5.44 220.776 3.76 219.376 2.8C218.216 2.04 216.816 1.64 215.416 1.64H201.176V29.16C201.176 29.16 201.256 30.2 200.016 30.4C199.776 30.44 199.616 30.56 199.616 30.72V31.04H206.216C207.616 31.04 208.736 30.28 208.656 29.4V18.08L216.456 29.56C217.056 30.44 217.776 31 218.816 31L223.856 31.04H225.616V30.72C225.616 30.56 225.456 30.44 225.216 30.4ZM215.696 7.72V13.28C215.696 14.28 215.616 14.88 215.176 15.36C214.336 16.4 213.456 16.44 212.936 16.44C212.696 16.44 212.616 16.44 212.176 16.4H208.656V12.92C208.656 12.6 208.656 12.32 208.656 12.04V9.08C208.656 5.96 208.416 3 212.056 3C216.016 3 215.696 7.72 215.696 7.72ZM237.232 29.4V1.64H232.272C230.872 1.64 229.752 2.8 229.752 4.2V29.12C229.752 29.12 229.832 30.2 228.592 30.4C228.352 30.44 228.152 30.56 228.152 30.72V31H234.792C236.192 31 237.312 30.28 237.232 29.4ZM259.569 13.24H263.369V5.16C263.369 3.24 261.849 1.68 259.969 1.68H242.849V28.48C242.849 29.88 243.969 31.04 245.369 31.04H247.889C247.969 31.04 248.049 31.04 248.129 31.04H259.969C261.849 31.04 263.369 29.48 263.369 27.52V21.36H259.169C257.289 21.36 256.169 22.56 256.169 23.92V24.48C256.169 24.68 256.169 24.64 256.169 24.84C256.169 26.36 257.449 26.72 257.449 27.84C257.449 28.92 256.009 29.76 253.369 29.72C250.249 29.64 250.329 28.16 250.329 21.8V17.52C250.329 17.32 250.449 16.32 251.449 16.32L255.769 16.36C256.089 16.36 256.209 16.12 256.209 15.92V15H250.329V7.96C250.409 4.04 250.889 3 254.049 3C256.689 3 257.529 3.8 257.529 5.2C257.529 7.72 256.169 6.88 256.169 9C256.169 9.24 256.169 9.28 256.169 9.48V10.08C256.169 12 257.689 13.24 259.569 13.24ZM281.015 15.16H279.775C278.855 15.16 275.535 15.4 275.535 13.36V6.64C275.535 4 277.255 2.56 279.735 2.44C282.215 2.32 284.895 3.28 285.615 4.96C286.055 6.04 285.735 6.44 284.815 7.52C283.055 9.64 283.575 12.96 286.095 14C288.575 15.08 291.535 13.92 291.535 10.04C291.535 6.16 289.335 1.12 280.015 1.12C278.695 1.12 273.575 0.719999 270.095 4.2C269.735 4.52 269.455 4.92 269.175 5.32C268.095 6.84 267.935 7.72 267.935 11C267.935 16.72 276.735 16.72 278.215 16.64C278.375 16.64 278.495 16.64 278.655 16.64H279.655C280.495 16.64 283.935 16.52 283.935 18.56V26.44C283.935 29.4 282.615 30.24 279.895 30.24C277.015 30.24 275.535 28.2 275.535 24.96V18.64H270.535C269.095 18.64 267.895 19.16 267.935 21.2V24.68C267.935 24.68 267.655 31.48 279.375 31.48C292.295 31.48 291.535 25.36 291.535 20.84C291.535 14.68 281.015 15.16 281.015 15.16Z" fill="black"/>
</svg>
