<svg width="264" height="32" viewBox="0 0 264 32" fill="none" xmlns="http://www.w3.org/2000/svg">
<path d="M9.04 25.64C9.04 25.48 9.04 25.24 9.04 24.92C9.04 23 7.92 22.28 7.92 19.96C7.92 19.48 8 18.96 8.16 18.4H16.84L20.32 29.4C20.72 30.36 21.64 31 22.68 31H29.64V30.72C29.64 30.56 29.28 30.44 29.2 30.36C29.2 30.36 28.2 29.76 28.08 29.4L20.12 4.12C19.4 1.68 19.24 1.6 18 1.6C17.96 1.6 17.84 1.6 17.76 1.6H11.48C9.36 7.8 2.92 24.72 0.48 31H6.36C7.76 31 9 29.6 9 28.2L9.04 25.64ZM13.24 17.08H8.52C9.32 14.52 11 9.56 12.52 4.84L15.84 15.4C15.84 16.36 15.16 17.12 13.4 17.12C13.36 17.12 13.32 17.12 13.24 17.08ZM56.2553 21.4C56.2553 18.96 55.0153 18.4 53.4553 18.4H49.3753V23.04C49.3753 28.16 47.6153 30.28 44.5753 30.28C41.8153 30.28 38.6553 28.52 38.6553 24.96V16.52V8.08C38.6553 4.52 41.8553 2.52 44.6153 2.44C47.8153 2.32 50.1753 3.32 50.9753 4.88C51.1753 5.24 51.2153 5.52 51.2153 5.8C51.1353 6.6 50.5753 7.12 50.2953 7.4C49.1353 8.6 48.4153 11.16 50.0153 12.8C51.2553 14.04 53.6553 14.6 55.1753 13.24C56.4953 12.04 56.2953 10.16 56.2553 9.96C56.2553 9.96 56.6153 1.12 44.2953 1.12C36.4553 1.12 30.6153 7.8 30.6153 16.36C30.6153 24.92 36.4553 31.6 44.2953 31.6C56.6153 31.6 56.2553 22.76 56.2553 22.76V21.4ZM77.7731 1.6C76.3731 1.28 74.7331 1.12 72.8131 1.12C70.8931 1.12 69.2531 1.28 67.8131 1.6C62.7331 2.72 60.5731 7.36 60.5731 12.56V20.12C60.5731 25.32 62.7331 29.92 67.8131 31.04C69.2531 31.36 70.8931 31.56 72.8131 31.56C74.7331 31.56 76.3731 31.36 77.7731 31.04C82.8531 29.92 85.0531 25.32 85.0531 20.12V12.56C85.0531 7.36 82.8531 2.72 77.7731 1.6ZM77.5731 25.24C77.5731 28.12 75.4131 30.36 72.8131 30.36C70.1731 30.36 68.0531 28.12 68.0531 25.24V7.6C68.0531 4.76 70.1731 2.44 72.8131 2.44C75.4131 2.44 77.5731 4.76 77.5731 7.6V25.24ZM112.98 16.32V1.64H108.02C106.58 1.64 105.46 2.76 105.46 4.16V25.12C105.46 28 104.02 30.24 101.38 30.24C98.7803 30.24 97.4603 28 97.4603 25.12V4.16C97.4603 2.76 96.3003 1.64 94.9003 1.64H89.9003V22.68C89.9003 26.72 92.6603 30.28 96.5803 31.08C97.9803 31.4 99.5403 31.56 101.38 31.56C103.26 31.56 104.86 31.36 106.26 31.08C110.18 30.24 112.98 26.68 112.98 22.64V16.32ZM130.844 15.16H129.604C128.684 15.16 125.364 15.4 125.364 13.36V6.64C125.364 4 127.084 2.56 129.564 2.44C132.044 2.32 134.724 3.28 135.444 4.96C135.884 6.04 135.564 6.44 134.644 7.52C132.884 9.64 133.404 12.96 135.924 14C138.404 15.08 141.364 13.92 141.364 10.04C141.364 6.16 139.164 1.12 129.844 1.12C128.524 1.12 123.404 0.719999 119.924 4.2C119.564 4.52 119.284 4.92 119.004 5.32C117.924 6.84 117.764 7.72 117.764 11C117.764 16.72 126.564 16.72 128.044 16.64C128.204 16.64 128.324 16.64 128.484 16.64H129.484C130.324 16.64 133.764 16.52 133.764 18.56V26.44C133.764 29.4 132.444 30.24 129.724 30.24C126.844 30.24 125.364 28.2 125.364 24.96V18.64H120.364C118.924 18.64 117.724 19.16 117.764 21.2V24.68C117.764 24.68 117.484 31.48 129.204 31.48C142.124 31.48 141.364 25.36 141.364 20.84C141.364 14.68 130.844 15.16 130.844 15.16ZM158.835 15.16H157.595C156.675 15.16 153.355 15.4 153.355 13.36V6.64C153.355 4 155.075 2.56 157.555 2.44C160.035 2.32 162.715 3.28 163.435 4.96C163.875 6.04 163.555 6.44 162.635 7.52C160.875 9.64 161.395 12.96 163.915 14C166.395 15.08 169.355 13.92 169.355 10.04C169.355 6.16 167.155 1.12 157.835 1.12C156.515 1.12 151.395 0.719999 147.915 4.2C147.555 4.52 147.275 4.92 146.995 5.32C145.915 6.84 145.755 7.72 145.755 11C145.755 16.72 154.555 16.72 156.035 16.64C156.195 16.64 156.315 16.64 156.475 16.64H157.475C158.315 16.64 161.755 16.52 161.755 18.56V26.44C161.755 29.4 160.435 30.24 157.715 30.24C154.835 30.24 153.355 28.2 153.355 24.96V18.64H148.355C146.915 18.64 145.715 19.16 145.755 21.2V24.68C145.755 24.68 145.475 31.48 157.195 31.48C170.115 31.48 169.355 25.36 169.355 20.84C169.355 14.68 158.835 15.16 158.835 15.16ZM170.931 1.6V2.4C170.931 2.6 171.091 3 171.571 3L178.051 2.96C178.971 2.96 179.131 3.56 179.131 3.96V28.48C179.131 29.88 180.291 31 181.691 31H186.651V3.96C186.651 3.6 186.811 2.96 187.731 2.96L194.251 3C194.811 3 194.851 2.6 194.851 2.4V1.6H170.931ZM204.749 29.4V1.64H199.789C198.389 1.64 197.269 2.8 197.269 4.2V29.12C197.269 29.12 197.349 30.2 196.109 30.4C195.869 30.44 195.669 30.56 195.669 30.72V31H202.309C203.709 31 204.829 30.28 204.749 29.4ZM234.846 21.4C234.846 18.96 233.606 18.4 232.046 18.4H227.966V23.04C227.966 28.16 226.206 30.28 223.166 30.28C220.406 30.28 217.246 28.52 217.246 24.96V16.52V8.08C217.246 4.52 220.446 2.52 223.206 2.44C226.406 2.32 228.766 3.32 229.566 4.88C229.766 5.24 229.806 5.52 229.806 5.8C229.726 6.6 229.166 7.12 228.886 7.4C227.726 8.6 227.006 11.16 228.606 12.8C229.846 14.04 232.246 14.6 233.766 13.24C235.086 12.04 234.886 10.16 234.846 9.96C234.846 9.96 235.206 1.12 222.886 1.12C215.046 1.12 209.206 7.8 209.206 16.36C209.206 24.92 215.046 31.6 222.886 31.6C235.206 31.6 234.846 22.76 234.846 22.76V21.4ZM252.204 15.16H250.964C250.044 15.16 246.724 15.4 246.724 13.36V6.64C246.724 4 248.444 2.56 250.924 2.44C253.404 2.32 256.084 3.28 256.804 4.96C257.244 6.04 256.924 6.44 256.004 7.52C254.244 9.64 254.764 12.96 257.284 14C259.764 15.08 262.724 13.92 262.724 10.04C262.724 6.16 260.524 1.12 251.204 1.12C249.884 1.12 244.764 0.719999 241.284 4.2C240.924 4.52 240.644 4.92 240.364 5.32C239.284 6.84 239.124 7.72 239.124 11C239.124 16.72 247.924 16.72 249.404 16.64C249.564 16.64 249.684 16.64 249.844 16.64H250.844C251.684 16.64 255.124 16.52 255.124 18.56V26.44C255.124 29.4 253.804 30.24 251.084 30.24C248.204 30.24 246.724 28.2 246.724 24.96V18.64H241.724C240.284 18.64 239.084 19.16 239.124 21.2V24.68C239.124 24.68 238.844 31.48 250.564 31.48C263.484 31.48 262.724 25.36 262.724 20.84C262.724 14.68 252.204 15.16 252.204 15.16Z" fill="black"/>
</svg>
