<svg width="166" height="32" viewBox="0 0 166 32" fill="none" xmlns="http://www.w3.org/2000/svg">
<path d="M21.32 15.8C20.16 15.04 18.44 14.68 17.08 14.68H16.8C17 14.64 17.16 14.6 17.32 14.56C19.88 14.08 21.68 12.08 21.68 9.84V6.6C21.68 4.36 19.88 2.36 17.32 1.88C16.64 1.76 15.8 1.68 14.84 1.68H1.96V29.16C1.96 29.16 2.04 30.2 0.8 30.4C0.56 30.44 0.36 30.56 0.36 30.72V31.04H7C8.4 31.04 9.52 30.32 9.44 29.4V28.8C10.24 30.04 11.24 31.04 13.36 31.04H20.36C21.88 31.04 24.08 31.12 24.08 28.56V21.36C24.08 18.44 22.72 16.76 21.32 15.8ZM9.44 5.04C9.44 3.92 10.68 3 12.16 3C13.68 3 14.88 3.92 14.88 5.04V11.88C14.88 13 13.68 13.84 12.16 13.84C10.64 13.84 9.44 13 9.44 11.88V5.04ZM17.24 28.12C16.88 28.8 16.12 29.04 15.72 29.04C15.44 29.04 13.44 29.04 12.8 29.04C12.4 29.04 11.4 28.84 10.68 28.2C9.48 27.12 9.36 26.28 9.36 25V22.08C9.36 18.92 9.32 15.84 13.24 15.84C17.52 15.84 17.52 20.72 17.52 20.72V26.2C17.52 27.24 17.56 27.56 17.24 28.12ZM36.3666 25.64C36.3666 25.48 36.3666 25.24 36.3666 24.92C36.3666 23 35.2466 22.28 35.2466 19.96C35.2466 19.48 35.3266 18.96 35.4866 18.4H44.1666L47.6466 29.4C48.0466 30.36 48.9666 31 50.0066 31H56.9666V30.72C56.9666 30.56 56.6066 30.44 56.5266 30.36C56.5266 30.36 55.5266 29.76 55.4066 29.4L47.4466 4.12C46.7266 1.68 46.5666 1.6 45.3266 1.6C45.2866 1.6 45.1666 1.6 45.0866 1.6H38.8066C36.6866 7.8 30.2466 24.72 27.8066 31H33.6866C35.0866 31 36.3266 29.6 36.3266 28.2L36.3666 25.64ZM40.5666 17.08H35.8466C36.6466 14.52 38.3266 9.56 39.8466 4.84L43.1666 15.4C43.1666 16.36 42.4866 17.12 40.7266 17.12C40.6866 17.12 40.6466 17.12 40.5666 17.08ZM72.7538 15.16H71.5138C70.5938 15.16 67.2738 15.4 67.2738 13.36V6.64C67.2738 4 68.9938 2.56 71.4738 2.44C73.9538 2.32 76.6338 3.28 77.3538 4.96C77.7938 6.04 77.4738 6.44 76.5538 7.52C74.7938 9.64 75.3138 12.96 77.8338 14C80.3138 15.08 83.2738 13.92 83.2738 10.04C83.2738 6.16 81.0738 1.12 71.7538 1.12C70.4338 1.12 65.3138 0.719999 61.8338 4.2C61.4738 4.52 61.1938 4.92 60.9138 5.32C59.8338 6.84 59.6738 7.72 59.6738 11C59.6738 16.72 68.4738 16.72 69.9538 16.64C70.1138 16.64 70.2338 16.64 70.3938 16.64H71.3938C72.2338 16.64 75.6738 16.52 75.6738 18.56V26.44C75.6738 29.4 74.3538 30.24 71.6338 30.24C68.7538 30.24 67.2738 28.2 67.2738 24.96V18.64H62.2738C60.8338 18.64 59.6338 19.16 59.6738 21.2V24.68C59.6738 24.68 59.3938 31.48 71.1138 31.48C84.0338 31.48 83.2738 25.36 83.2738 20.84C83.2738 14.68 72.7538 15.16 72.7538 15.16ZM100.744 15.16H99.5044C98.5844 15.16 95.2644 15.4 95.2644 13.36V6.64C95.2644 4 96.9844 2.56 99.4644 2.44C101.944 2.32 104.624 3.28 105.344 4.96C105.784 6.04 105.464 6.44 104.544 7.52C102.784 9.64 103.304 12.96 105.824 14C108.304 15.08 111.264 13.92 111.264 10.04C111.264 6.16 109.064 1.12 99.7444 1.12C98.4244 1.12 93.3044 0.719999 89.8244 4.2C89.4644 4.52 89.1844 4.92 88.9044 5.32C87.8244 6.84 87.6644 7.72 87.6644 11C87.6644 16.72 96.4644 16.72 97.9444 16.64C98.1044 16.64 98.2244 16.64 98.3844 16.64H99.3844C100.224 16.64 103.664 16.52 103.664 18.56V26.44C103.664 29.4 102.344 30.24 99.6244 30.24C96.7444 30.24 95.2644 28.2 95.2644 24.96V18.64H90.2644C88.8244 18.64 87.6244 19.16 87.6644 21.2V24.68C87.6644 24.68 87.3844 31.48 99.1044 31.48C112.024 31.48 111.264 25.36 111.264 20.84C111.264 14.68 100.744 15.16 100.744 15.16ZM132.975 13.24H136.775V5.16C136.775 3.24 135.255 1.68 133.375 1.68H116.255V28.48C116.255 29.88 117.375 31.04 118.775 31.04H121.295C121.375 31.04 121.455 31.04 121.535 31.04H133.375C135.255 31.04 136.775 29.48 136.775 27.52V21.36H132.575C130.695 21.36 129.575 22.56 129.575 23.92V24.48C129.575 24.68 129.575 24.64 129.575 24.84C129.575 26.36 130.855 26.72 130.855 27.84C130.855 28.92 129.415 29.76 126.775 29.72C123.655 29.64 123.735 28.16 123.735 21.8V17.52C123.735 17.32 123.855 16.32 124.855 16.32L129.175 16.36C129.495 16.36 129.615 16.12 129.615 15.92V15H123.735V7.96C123.815 4.04 124.295 3 127.455 3C130.095 3 130.935 3.8 130.935 5.2C130.935 7.72 129.575 6.88 129.575 9C129.575 9.24 129.575 9.28 129.575 9.48V10.08C129.575 12 131.095 13.24 132.975 13.24ZM154.421 15.16H153.181C152.261 15.16 148.941 15.4 148.941 13.36V6.64C148.941 4 150.661 2.56 153.141 2.44C155.621 2.32 158.301 3.28 159.021 4.96C159.461 6.04 159.141 6.44 158.221 7.52C156.461 9.64 156.981 12.96 159.501 14C161.981 15.08 164.941 13.92 164.941 10.04C164.941 6.16 162.741 1.12 153.421 1.12C152.101 1.12 146.981 0.719999 143.501 4.2C143.141 4.52 142.861 4.92 142.581 5.32C141.501 6.84 141.341 7.72 141.341 11C141.341 16.72 150.141 16.72 151.621 16.64C151.781 16.64 151.901 16.64 152.061 16.64H153.061C153.901 16.64 157.341 16.52 157.341 18.56V26.44C157.341 29.4 156.021 30.24 153.301 30.24C150.421 30.24 148.941 28.2 148.941 24.96V18.64H143.941C142.501 18.64 141.301 19.16 141.341 21.2V24.68C141.341 24.68 141.061 31.48 152.781 31.48C165.701 31.48 164.941 25.36 164.941 20.84C164.941 14.68 154.421 15.16 154.421 15.16Z" fill="black"/>
</svg>
