<svg width="136" height="31" viewBox="0 0 136 31" fill="none" xmlns="http://www.w3.org/2000/svg">
<path d="M18 20.36C16.12 20.36 15.04 21.52 15.04 22.88V23.48C15.04 23.68 15.04 23.64 15.04 23.84C15.04 25.36 16.28 25.72 16.28 26.8C16.32 27.92 15.12 28.76 12.48 28.72C9.6 28.64 9.44 27.36 9.44 22.08V0.639999H4.48C3.08 0.639999 1.96 1.8 1.96 3.2V28.12C1.96 28.12 2.04 29.2 0.8 29.4C0.56 29.44 0.4 29.56 0.4 29.72V30H18.4C20.28 30 21.8 28.44 21.8 26.52V20.36H18ZM42.595 0.599999C41.195 0.279999 39.555 0.119998 37.635 0.119998C35.715 0.119998 34.075 0.279999 32.635 0.599999C27.555 1.72 25.395 6.36 25.395 11.56V19.12C25.395 24.32 27.555 28.92 32.635 30.04C34.075 30.36 35.715 30.56 37.635 30.56C39.555 30.56 41.195 30.36 42.595 30.04C47.675 28.92 49.875 24.32 49.875 19.12V11.56C49.875 6.36 47.675 1.72 42.595 0.599999ZM42.395 24.24C42.395 27.12 40.235 29.36 37.635 29.36C34.995 29.36 32.875 27.12 32.875 24.24V6.6C32.875 3.76 34.995 1.44 37.635 1.44C40.235 1.44 42.395 3.76 42.395 6.6V24.24ZM79.4422 20.36L79.3622 18.8C79.3622 16.92 77.8022 15.4 75.8822 15.4L65.7622 15.36V18.76C65.7622 20.64 67.0022 21.76 68.9222 21.76H69.7622C71.4022 21.76 70.8822 20.52 73.3622 20.64C75.0422 20.72 75.4422 21.64 75.2022 24.28C75.0022 26.36 71.9222 29.2 68.0022 29.2C65.2822 29.2 61.7622 27.32 61.7622 23.76V6.88C61.7622 3.32 64.4022 1.48 67.1622 1.4C70.3622 1.28 72.8822 2.32 73.6822 3.88C74.2022 4.92 73.6022 5.92 73.1222 6.4C72.0022 7.6 71.2022 10.12 72.8422 11.76C74.0822 13 76.5222 13.44 78.0422 12.08C79.2822 10.96 79.3222 8.92 79.3222 8.92C79.3222 8.32 79.1222 0.079999 67.4422 0.079999C59.6022 0.079999 53.8022 6.76 53.8022 15.32C53.8022 23.88 59.6022 30.52 67.4422 30.52C79.7622 30.52 79.4422 20.36 79.4422 20.36ZM105.543 28.4V0.639999H100.583C99.1831 0.639999 98.0631 1.8 98.0631 3.2V28.12C98.0631 28.12 98.1431 29.2 96.9031 29.4C96.6631 29.44 96.4631 29.56 96.4631 29.72V30H103.103C104.503 30 105.623 29.28 105.543 28.4ZM130.68 0.639999C129.28 0.639999 128.16 1.76 128.16 3.16V20.64C128.16 21.68 127.28 22.52 126.24 22.52C125.2 22.52 124.32 21.68 124.32 20.6V3.16C124.32 1.76 123.2 0.639999 121.8 0.639999H113.68C112.28 0.639999 111.16 1.76 111.16 3.16V30.04H116.12C117.52 30.04 118.64 28.88 118.64 27.48V10.04C118.64 8.96 119.48 8.12 120.52 8.12C121.6 8.12 122.44 8.96 122.44 10.04V27.48C122.44 28.88 123.6 30.04 125 30.04H133.12C134.52 30.04 135.64 28.88 135.64 27.48V0.639999H130.68Z" fill="black"/>
</svg>
