<svg width="80" height="25" viewBox="0 0 80 25" fill="none" xmlns="http://www.w3.org/2000/svg">
<path d="M10.56 19.752C10.56 15.216 4.728 16.344 3.12 16.608C2.736 16.68 2.352 16.68 1.968 16.656C1.824 16.632 1.704 16.608 1.632 16.584C1.536 16.536 1.44 16.488 1.368 16.416C1.2 16.224 1.176 15.936 1.296 15.72C1.392 15.504 1.704 15.288 1.968 15.24C2.112 15.216 2.376 15.192 2.664 15.24C2.976 15.384 3.336 15.504 3.696 15.576C4.2 15.672 4.776 15.72 5.472 15.72C6.144 15.72 6.744 15.672 7.248 15.576C9.048 15.216 10.296 13.8 10.296 12.216V9.912C10.296 8.496 9.288 7.224 7.776 6.72C8.856 6.312 8.784 5.328 8.784 5.328C8.784 4.536 8.16 4.272 7.656 4.488C7.152 4.704 7.008 5.424 7.416 5.784C7.608 5.952 7.704 6.048 7.56 6.192C7.296 6.456 6.288 6.432 5.496 6.432C5.472 6.432 5.472 6.432 5.472 6.432C5.448 6.432 5.448 6.432 5.448 6.432C5.424 6.432 5.4 6.432 5.4 6.432C4.728 6.432 4.176 6.48 3.696 6.576C1.872 6.912 0.624 8.328 0.624 9.912V12.216C0.624 13.176 1.08 14.064 1.824 14.712C1.632 14.736 1.44 14.808 1.224 14.952C0.816 15.192 0.504 15.792 0.48 16.368C0.456 16.848 0.624 17.4 0.936 17.712C1.2 17.952 1.512 18.048 1.848 18.12C2.16 18.168 2.424 18.192 2.928 18.192C3.408 18.192 7.128 17.712 7.128 20.256V22.32C7.128 23.664 6.144 24.12 5.328 24.12C4.512 24.12 3.792 23.136 3.792 21.672V19.896H1.464C0.84 19.896 0.312 20.112 0.336 21.024V21.552C0.336 21.552 0.216 24.624 5.28 24.624C10.512 24.624 10.56 22.656 10.56 19.752ZM3.768 8.448C3.768 7.584 4.536 6.912 5.472 6.912C6.408 6.912 7.152 7.584 7.152 8.448V13.68C7.152 14.52 6.408 15.216 5.472 15.216C4.536 15.216 3.768 14.52 3.768 13.68V8.448ZM21.2938 14.352C21.2938 13.392 20.7898 13.176 20.1658 13.176H18.3658V14.976C18.3658 16.992 17.7658 17.856 16.4218 17.856C15.2938 17.856 14.7898 17.064 14.7658 15.648V15C14.7658 12.576 18.6298 12.432 19.1578 12.432C19.6858 12.432 19.6618 12.432 19.7578 12.432C21.6538 12.408 21.3418 11.784 21.3418 10.248C21.3418 9.072 20.9338 6.432 16.4698 6.432C13.2778 6.432 11.0458 9.048 11.0458 12.36C11.0458 15.744 13.2298 18.336 16.4218 18.336C21.4378 18.336 21.2938 14.856 21.2938 14.856V14.352ZM14.7658 9.648C14.7658 9.024 15.0058 7.032 16.3018 6.912C16.9258 6.864 18.2938 6.744 18.2938 9.408V10.824C18.2938 11.544 18.1498 11.664 17.7658 11.76C17.5018 11.808 17.0218 11.904 16.4938 12.12C15.8218 12.384 15.3658 12.6 14.8618 13.368C14.7898 13.464 14.7658 13.536 14.7418 13.608C14.7418 13.608 14.7658 10.272 14.7658 9.648ZM26.2871 6.768V0.383999H24.2951C23.4551 0.383999 22.7831 1.056 22.7831 1.896V6.768H21.8231V7.056C21.8231 7.152 21.9431 7.224 22.0871 7.248C22.6871 7.344 22.7591 7.728 22.7831 7.896V7.968V7.992V16.152C22.7831 18 23.4791 18 24.3191 18H27.2471V17.832C27.2471 17.736 27.1511 17.64 27.0071 17.64C26.2391 17.52 26.2871 16.896 26.2871 16.896V7.896C26.3111 7.704 26.3831 7.272 26.9111 7.248H28.9031C29.0471 7.224 29.1671 7.152 29.1671 7.056V6.768H26.2871ZM40.1199 17.64C39.3039 17.544 39.3759 16.896 39.3759 16.896V9.792C39.3759 6.984 35.9919 6.432 34.0959 6.432C28.5999 6.432 28.7679 9.792 28.7679 9.792C28.6719 11.256 30.0399 11.712 31.1199 11.304C32.2239 10.896 32.4399 9.624 31.6719 8.832C31.2639 8.424 31.0959 8.256 31.3359 7.848C31.6959 7.272 32.6559 6.792 34.0959 6.912C35.3439 6.984 35.9439 7.656 35.9439 9C35.9439 9.288 35.9439 9.552 35.9439 9.792V9.816V10.032C35.8959 11.064 35.4879 11.64 32.9679 12.216C29.4879 13.032 28.7679 14.784 28.7679 15.96V16.968C28.7439 17.856 29.2239 18.024 30.4239 18.024H33.2079C34.0959 18.024 35.0559 17.808 35.9439 16.776V17.064C35.9439 17.592 36.6639 18.024 37.5759 18.024H40.3839V17.856C40.3839 17.76 40.2879 17.664 40.1199 17.64ZM35.9439 15.864C35.7279 16.656 34.5279 17.352 33.2319 16.824C31.9599 16.32 32.1759 14.064 33.9279 13.032C35.6079 12.048 35.9439 11.568 35.9439 11.568V15.864ZM56.1883 6.768H54.1723C53.3323 6.768 52.6603 7.44 52.6603 8.28C52.6603 8.304 52.6603 8.496 52.6603 8.664C52.6603 9.288 52.6363 9.552 52.6603 10.104C52.7083 10.872 53.3083 11.472 53.5483 12.144C53.6683 12.48 53.9563 13.272 52.9483 16.632L49.1323 7.728C48.8923 7.152 48.3403 6.768 47.7163 6.768H45.5083L47.1883 10.704C47.5003 11.448 47.6443 12.096 47.6923 12.552C47.7883 12.768 47.7163 14.4 47.6683 14.376C47.5963 14.856 47.4763 15.696 47.0923 16.776L43.2043 7.728C42.9883 7.128 42.4123 6.768 41.7883 6.768H39.5803L43.6123 16.152C44.2843 17.664 44.3083 18 45.1483 18H47.6203C47.9803 16.656 48.2923 15.312 48.5803 13.968L49.5163 16.152C50.1883 17.664 50.2123 18 51.0763 18H53.5243C54.4843 14.256 55.2283 10.512 56.1883 6.768ZM67.9637 17.64C67.1477 17.544 67.2197 16.896 67.2197 16.896V9.792C67.2197 6.984 63.8357 6.432 61.9397 6.432C56.4437 6.432 56.6117 9.792 56.6117 9.792C56.5157 11.256 57.8837 11.712 58.9637 11.304C60.0677 10.896 60.2837 9.624 59.5157 8.832C59.1077 8.424 58.9397 8.256 59.1797 7.848C59.5397 7.272 60.4997 6.792 61.9397 6.912C63.1877 6.984 63.7877 7.656 63.7877 9C63.7877 9.288 63.7877 9.552 63.7877 9.792V9.816V10.032C63.7397 11.064 63.3317 11.64 60.8117 12.216C57.3317 13.032 56.6117 14.784 56.6117 15.96V16.968C56.5877 17.856 57.0677 18.024 58.2677 18.024H61.0517C61.9397 18.024 62.8997 17.808 63.7877 16.776V17.064C63.7877 17.592 64.5077 18.024 65.4197 18.024H68.2277V17.856C68.2277 17.76 68.1317 17.664 67.9637 17.64ZM63.7877 15.864C63.5717 16.656 62.3717 17.352 61.0757 16.824C59.8037 16.32 60.0197 14.064 61.7717 13.032C63.4517 12.048 63.7877 11.568 63.7877 11.568V15.864ZM78.9814 18V8.28C78.9814 7.44 78.2854 6.744 77.4454 6.744H75.5494V13.704C75.5254 14.232 75.5254 14.712 75.4294 15.096C75.3334 15.648 74.9254 16.368 74.3974 16.632C73.8934 16.896 73.2214 16.848 72.8134 16.464C72.6454 16.296 72.5254 16.08 72.4534 15.84C72.2374 15.288 72.1894 13.92 72.1894 13.344V8.28C72.1894 7.44 71.5174 6.744 70.6774 6.744H68.7814V13.344C68.7814 14.496 68.8294 14.64 68.9494 15.36C69.0934 16.104 69.3334 16.848 69.8614 17.424C70.5574 18.144 71.6854 18.48 72.7174 18.312C73.7494 18.144 74.7334 17.52 75.3334 16.704C75.4054 16.584 75.4774 16.488 75.5494 16.368V22.296C75.5494 23.64 75.1174 24.096 73.9414 24.096C72.6934 24.096 72.2134 23.112 72.2134 21.648V19.848H69.8854C69.2614 19.848 68.7334 20.088 68.7574 21V21.528C68.7574 21.528 68.6374 24.6 73.7014 24.6C79.2934 24.6 78.9814 21.264 78.9814 18Z" fill="black"/>
</svg>
