<svg width="299" height="31" viewBox="0 0 299 31" fill="none" xmlns="http://www.w3.org/2000/svg">
<path d="M18.76 1.8C17.6 1.04 16.2 0.639999 14.8 0.639999H0.48V28.4C0.4 29.28 1.52 30 2.92 30H9.52V29.72C9.52 29.56 9.36 29.44 9.12 29.4C7.84 29.2 7.96 28.16 7.96 28.16V16.08C8.6 16.64 9.44 17.04 10.6 17.04H17.8C19.36 17.04 21.6 17.12 21.6 14.56V7.36C21.6 4.44 20.2 2.76 18.76 1.8ZM15.24 6.72V12.52C15.24 13.52 15.16 14.08 14.72 14.6C13.88 15.64 12.96 15.64 12.4 15.64C12.12 15.64 12.08 15.64 11.44 15.64C11 15.64 9.92 15.64 9.16 15C7.92 13.92 8.04 12.24 8.04 11V8.08C8.04 4.92 7.76 2 11.52 2C15.6 2 15.24 6.72 15.24 6.72ZM42.7297 12.24H46.5297V4.16C46.5297 2.24 45.0097 0.679998 43.1297 0.679998H26.0097V27.48C26.0097 28.88 27.1297 30.04 28.5297 30.04H31.0497C31.1297 30.04 31.2097 30.04 31.2897 30.04H43.1297C45.0097 30.04 46.5297 28.48 46.5297 26.52V20.36H42.3297C40.4497 20.36 39.3297 21.56 39.3297 22.92V23.48C39.3297 23.68 39.3297 23.64 39.3297 23.84C39.3297 25.36 40.6097 25.72 40.6097 26.84C40.6097 27.92 39.1697 28.76 36.5297 28.72C33.4097 28.64 33.4897 27.16 33.4897 20.8V16.52C33.4897 16.32 33.6097 15.32 34.6097 15.32L38.9297 15.36C39.2497 15.36 39.3697 15.12 39.3697 14.92V14H33.4897V6.96C33.5697 3.04 34.0497 2 37.2097 2C39.8497 2 40.6897 2.8 40.6897 4.2C40.6897 6.72 39.3297 5.88 39.3297 8C39.3297 8.24 39.3297 8.28 39.3297 8.48V9.08C39.3297 11 40.8497 12.24 42.7297 12.24ZM76.2156 29.4C75.4556 29.2 75.0556 28.68 74.7756 28.32L74.5756 27.96L67.4956 17.04H69.4156C70.9756 17.04 73.2156 17.12 73.2156 14.56V7.36C73.2156 4.44 71.7756 2.76 70.3756 1.8C69.2156 1.04 67.8156 0.639999 66.4156 0.639999H52.1756V28.16C52.1756 28.16 52.2556 29.2 51.0156 29.4C50.7756 29.44 50.6156 29.56 50.6156 29.72V30.04H57.2156C58.6156 30.04 59.7356 29.28 59.6556 28.4V17.08L67.4556 28.56C68.0556 29.44 68.7756 30 69.8156 30L74.8556 30.04H76.6156V29.72C76.6156 29.56 76.4556 29.44 76.2156 29.4ZM66.6956 6.72V12.28C66.6956 13.28 66.6156 13.88 66.1756 14.36C65.3356 15.4 64.4556 15.44 63.9356 15.44C63.6956 15.44 63.6156 15.44 63.1756 15.4H59.6556V11.92C59.6556 11.6 59.6556 11.32 59.6556 11.04V8.08C59.6556 4.96 59.4156 2 63.0556 2C67.0156 2 66.6956 6.72 66.6956 6.72ZM97.3922 0.639999H80.2722V28.4C80.1922 29.28 81.3122 30 82.7122 30H89.3122V29.72C89.3122 29.56 89.1522 29.44 88.9122 29.4C87.6322 29.2 87.7522 28.16 87.7522 28.16V16.56V16.48C87.7922 16.24 87.8722 15.36 88.8322 15.32L93.1522 15.36C93.4722 15.36 93.5922 15.12 93.5922 14.92V14H87.7522L87.7922 6.24C87.9122 2.88 88.5122 1.96 91.4722 1.96C94.1122 1.96 94.9522 2.8 94.9522 4.16C94.9522 6.72 93.5922 5.88 93.5922 8C93.5922 8.2 93.5922 8.28 93.5922 8.48V9.08C93.5922 11 95.1122 12.24 96.9922 12.24H100.792V4.16C100.792 2.24 99.2722 0.639999 97.3922 0.639999ZM121.623 12.24H125.423V4.16C125.423 2.24 123.903 0.679998 122.023 0.679998H104.903V27.48C104.903 28.88 106.023 30.04 107.423 30.04H109.943C110.023 30.04 110.103 30.04 110.183 30.04H122.023C123.903 30.04 125.423 28.48 125.423 26.52V20.36H121.223C119.343 20.36 118.223 21.56 118.223 22.92V23.48C118.223 23.68 118.223 23.64 118.223 23.84C118.223 25.36 119.503 25.72 119.503 26.84C119.503 27.92 118.063 28.76 115.423 28.72C112.303 28.64 112.383 27.16 112.383 20.8V16.52C112.383 16.32 112.503 15.32 113.503 15.32L117.823 15.36C118.143 15.36 118.263 15.12 118.263 14.92V14H112.383V6.96C112.463 3.04 112.943 2 116.103 2C118.743 2 119.583 2.8 119.583 4.2C119.583 6.72 118.223 5.88 118.223 8C118.223 8.24 118.223 8.28 118.223 8.48V9.08C118.223 11 119.743 12.24 121.623 12.24ZM155.069 20.4C155.069 17.96 153.829 17.4 152.269 17.4H148.189V22.04C148.189 27.16 146.429 29.28 143.389 29.28C140.629 29.28 137.469 27.52 137.469 23.96V15.52V7.08C137.469 3.52 140.669 1.52 143.429 1.44C146.629 1.32 148.989 2.32 149.789 3.88C149.989 4.24 150.029 4.52 150.029 4.8C149.949 5.6 149.389 6.12 149.109 6.4C147.949 7.6 147.229 10.16 148.829 11.8C150.069 13.04 152.469 13.6 153.989 12.24C155.309 11.04 155.109 9.16 155.069 8.96C155.069 8.96 155.429 0.119998 143.109 0.119998C135.269 0.119998 129.429 6.8 129.429 15.36C129.429 23.92 135.269 30.6 143.109 30.6C155.429 30.6 155.069 21.76 155.069 21.76V20.4ZM156.493 0.599999V1.4C156.493 1.6 156.653 2 157.133 2L163.613 1.96C164.533 1.96 164.693 2.56 164.693 2.96V27.48C164.693 28.88 165.853 30 167.253 30H172.213V2.96C172.213 2.6 172.373 1.96 173.293 1.96L179.813 2C180.373 2 180.413 1.6 180.413 1.4V0.599999H156.493ZM193.334 0.599999V1.4C193.334 1.6 193.494 2 193.974 2L200.454 1.96C201.374 1.96 201.534 2.56 201.534 2.96V27.48C201.534 28.88 202.694 30 204.094 30H209.054V2.96C209.054 2.6 209.214 1.96 210.134 1.96L216.654 2C217.214 2 217.254 1.6 217.254 1.4V0.599999H193.334ZM242.072 15.32V0.639999H237.112C235.672 0.639999 234.552 1.76 234.552 3.16V24.12C234.552 27 233.112 29.24 230.472 29.24C227.872 29.24 226.552 27 226.552 24.12V3.16C226.552 1.76 225.392 0.639999 223.992 0.639999H218.992V21.68C218.992 25.72 221.752 29.28 225.672 30.08C227.072 30.4 228.632 30.56 230.472 30.56C232.352 30.56 233.952 30.36 235.352 30.08C239.272 29.24 242.072 25.68 242.072 21.64V15.32ZM266.977 0.639999C265.577 0.639999 264.457 1.76 264.457 3.16V20.64C264.457 21.68 263.577 22.52 262.537 22.52C261.497 22.52 260.617 21.68 260.617 20.6V3.16C260.617 1.76 259.497 0.639999 258.097 0.639999H249.977C248.577 0.639999 247.457 1.76 247.457 3.16V30.04H252.417C253.817 30.04 254.937 28.88 254.937 27.48V10.04C254.937 8.96 255.777 8.12 256.817 8.12C257.897 8.12 258.737 8.96 258.737 10.04V27.48C258.737 28.88 259.897 30.04 261.297 30.04H269.417C270.817 30.04 271.937 28.88 271.937 27.48V0.639999H266.977ZM294.238 12.24H298.038V4.16C298.038 2.24 296.518 0.679998 294.638 0.679998H277.518V27.48C277.518 28.88 278.638 30.04 280.038 30.04H282.558C282.638 30.04 282.718 30.04 282.798 30.04H294.638C296.518 30.04 298.038 28.48 298.038 26.52V20.36H293.838C291.958 20.36 290.838 21.56 290.838 22.92V23.48C290.838 23.68 290.838 23.64 290.838 23.84C290.838 25.36 292.118 25.72 292.118 26.84C292.118 27.92 290.678 28.76 288.038 28.72C284.918 28.64 284.998 27.16 284.998 20.8V16.52C284.998 16.32 285.118 15.32 286.118 15.32L290.438 15.36C290.758 15.36 290.878 15.12 290.878 14.92V14H284.998V6.96C285.078 3.04 285.558 2 288.718 2C291.358 2 292.198 2.8 292.198 4.2C292.198 6.72 290.838 5.88 290.838 8C290.838 8.24 290.838 8.28 290.838 8.48V9.08C290.838 11 292.358 12.24 294.238 12.24Z" fill="black"/>
</svg>
